<svg preserveAspectRatio="none" width="100%" height="100%" overflow="visible" style="display: block;" viewBox="0 0 306.122 435.185" fill="none" xmlns="http://www.w3.org/2000/svg">
<g id="Group 70" filter="url(#filter0_g_0_10)">
<path id="Vector" d="M296.649 422.599C290.072 429.476 276.052 430.616 267.018 430.063C191.208 425.554 86.6143 310.481 35.3129 257.42C9.88712 231.122 -9.65383 206.725 19.7009 172.791C22.851 169.145 27.178 167.539 30.0512 164.135C32.5955 161.111 34.032 155.288 37.1648 152.247C40.9899 148.533 46.6497 148.463 49.7825 144.178C36.7494 108.655 22.4009 68.5864 20.5143 30.4535C19.7009 13.8837 16.7412 2.98115 37.061 5.3137C51.4268 6.97241 57.2769 19.1017 65.3253 29.0021C66.2772 32.6651 59.7866 40.3539 58.1077 45.3991C52.7595 61.5196 54.7673 92.4476 56.9308 109.778C57.675 115.704 61.1886 136.87 63.9406 140.757C67.7311 146.096 89.4009 145.111 97.3281 150.589C100.288 152.627 101.361 156.619 104.459 159.02C131.962 180.273 156.505 192.661 170.628 227.632C189.788 275.13 189.996 317.254 232.47 355.819C251.509 373.114 282.612 380.371 296.442 398.997C301.824 406.254 303.399 415.567 296.667 422.599H296.649ZM56.8962 24.3197C51.4095 16.3372 40.6784 9.47774 31.055 14.091C26.7453 20.795 51.2537 29.5895 56.8962 24.3197ZM51.7037 32.9934C43.7939 33.4426 37.286 28.3282 30.9685 24.3543C27.7665 28.7775 38.3245 80.9749 40.4534 89.9768C43.8112 104.197 49.0556 124.74 54.6807 137.924C55.598 140.049 55.598 143.021 58.5924 143.487C51.046 108.344 39.6572 68.1026 51.6864 32.9934H51.7037ZM55.1827 167.642C58.4366 167.02 75.139 164.619 74.187 159.902C72.837 153.215 53.7807 161.284 55.1827 167.642ZM281.608 399.118C232.54 377.952 190.308 333.305 168.984 284.512C156.505 255.934 154.324 223.019 133.866 198.726C124.537 187.65 110.828 177.975 98.9551 169.664C89.3317 175.02 75.2601 180.687 64.131 181.067C50.8902 181.517 49.6613 172.947 38.7399 184.92C20.0124 205.464 26.1049 227.822 42.1842 247.122C83.1873 296.278 136.202 349.53 190.187 384.224C203.877 393.019 219.403 402.435 235.274 406.548C247.84 409.796 279.964 417.571 281.608 399.135V399.118Z" fill="var(--fill-0, #C94B44)"/>
<path id="Vector_2" d="M134.696 233.265C131.702 233.818 130.214 231.831 128.794 229.688C124.969 223.883 112.144 200.143 112.144 194.372C112.144 191.504 112.352 190.139 114.827 188.411C126.994 199.261 134.281 217.283 134.696 233.265Z" fill="var(--fill-0, #C94B44)"/>
</g>
<defs>
<filter id="filter0_g_0_10" x="-1.06725e-07" y="-2.51842e-08" width="306.122" height="435.185" filterUnits="userSpaceOnUse" color-interpolation-filters="sRGB">
<feFlood flood-opacity="0" result="BackgroundImageFix"/>
<feBlend mode="normal" in="SourceGraphic" in2="BackgroundImageFix" result="shape"/>
<feTurbulence type="fractalNoise" baseFrequency="0.033333335071802139 0.033333335071802139" numOctaves="3" seed="7717" />
<feDisplacementMap in="shape" scale="10" xChannelSelector="R" yChannelSelector="G" result="displacedImage" width="100%" height="100%" />
<feMerge result="effect1_texture_0_10">
<feMergeNode in="displacedImage"/>
</feMerge>
</filter>
</defs>
</svg>
