<svg preserveAspectRatio="none" width="100%" height="100%" overflow="visible" style="display: block;" viewBox="0 0 335.779 358.016" fill="none" xmlns="http://www.w3.org/2000/svg">
<g id="Layer_1" filter="url(#filter0_g_0_53)">
<g clip-path="url(#clip0_0_53)">
<path id="Vector" d="M104.963 164.464C84.2463 158.229 62.8468 150.341 46.0142 136.511C27.5368 121.337 18.2281 96.5694 16.0584 73.4728C14.1862 53.597 16.7583 28.4335 32.4711 13.9314C41.0624 6.04305 49.7937 5.85359 60.8521 10.6589C71.9105 15.4643 79.8194 24.386 84.5263 34.8579C96.4421 61.2786 86.9934 90.4207 78.2097 116.221L88.3582 113.552C94.3074 95.6566 97.1945 76.9175 103.161 59.0051C108.533 42.884 117.842 22.1125 135.094 15.1543C153.239 7.83429 172.976 24.1277 174.201 41.6783C175.776 64.3272 161.06 89.4217 148.847 107.61C140.903 119.425 131.297 129.397 120.799 139.008C115.899 143.486 110.965 147.964 106.468 152.838C103.931 155.594 101.481 158.47 99.3117 161.519C98.7343 162.346 97.107 164.034 96.967 165.033C95.2173 167.22 96.4246 167.237 100.589 165.084C105.103 164.154 106.468 163.793 104.666 163.965L99.6091 165.36L100.799 165.05L95.7072 166.342C112.82 164.602 97.072 188.611 94.6398 194.864C90.6329 205.163 96.5296 232.29 110.685 233.014C120.239 233.496 129.967 227.433 136.196 221.147C143.668 213.603 151.034 205.955 158.453 198.377C162.355 194.381 166.257 190.386 170.159 186.39C173.466 182.997 176.826 178.036 181.148 176.056L170.999 178.725C176.843 180.706 168.287 189.731 166.415 192.487C162.985 197.516 159.416 202.442 155.689 207.264C147.64 217.719 138.944 227.691 129.652 237.078C127.413 239.352 120.921 244.691 127.868 245.466C129.547 245.656 132.627 244.26 134.202 243.847C140.921 242.039 146.118 238.766 151.507 234.357C167.535 221.267 183.3 207.816 199.205 194.554L189.056 197.223C191.506 197.344 185.889 201.839 185.452 202.287C183.352 204.509 181.288 206.748 179.24 209.038C174.831 213.964 170.562 219.028 166.45 224.212C157.911 234.977 150.107 246.276 142.933 257.953C143.93 256.334 151.174 256.248 153.082 255.283C165.032 249.186 175.548 239.145 185.609 230.516C195.671 221.887 206.764 212.793 215.39 202.39C213.623 204.526 207.079 202.872 205.242 205.06C196.615 215.463 185.697 224.385 175.461 233.186C165.4 241.832 154.884 251.873 142.933 257.953L153.082 255.283C159.731 244.467 166.905 233.978 174.709 223.937C176.546 221.594 199.852 195.26 199.817 195.208C197.21 191.781 187.167 198.773 184.315 201.167L154.779 225.814C146.59 232.635 137.876 241.711 127.763 245.466L137.911 242.796C129.442 242.4 143.038 231.085 145.085 228.897C151.017 222.611 156.686 216.083 162.075 209.349C167.465 202.614 172.574 195.656 177.403 188.525C179.433 185.511 187.569 176.503 180.045 176.28C168.777 175.952 160.833 188.198 154.149 195.019C147.465 201.839 140.868 208.608 134.237 215.394C128.2 221.577 122.478 229.121 114.272 232.531L124.228 229.896C112.365 232.325 106.696 217.495 104.526 208.487C101.866 197.43 106.136 190.213 110.125 180.275C111.42 177.055 114.657 173.11 114.29 169.442C113.852 165.015 109.758 163.207 105.733 163.655C102.339 164.034 97.4219 165.101 94.3949 166.686L94.5873 166.652C98.6643 165.842 102.881 164.826 106.818 163.5L106.993 163.431C106.748 163.465 114.989 151.891 116.599 150.152C121.411 144.916 126.73 140.162 131.98 135.357C142.513 125.711 151.962 115.601 159.801 103.683C172.276 84.7369 190.229 54.9748 182.967 31.4476C176.668 11.0206 154.254 9.33273 136.511 14.0003C118.769 18.6678 106.556 30.5348 98.7168 47.1554C88.3757 69.0464 85.7861 93.4003 78.2097 116.187C78.7871 114.447 87.7108 115.36 88.3582 113.517C97.037 88.0266 106.311 59.5218 95.1473 33.2733C90.3179 21.9231 81.4292 11.9679 69.6359 7.36926C59.7673 3.52843 50.3361 4.92353 40.5025 7.55871C-9.33047 20.9758 1.06306 95.9149 24.5972 127.537C40.7125 149.204 69.7408 159.59 94.8323 167.151C97.7019 168.012 102.181 163.638 104.981 164.481L104.963 164.464Z" fill="var(--fill-0, #C94B44)"/>
<path id="Vector_2" d="M185.574 248.273C183.072 250.22 180.605 252.269 177.946 254.009C176.721 254.853 175.426 255.611 174.096 256.282C176.196 255.869 175.741 255.766 172.696 255.99C165.785 254.801 160.326 253.268 154.761 248.79C149.512 244.553 144.543 239.627 140.221 234.495C137.124 230.826 129.32 222.059 130.737 216.961L120.589 219.631C124.788 218.976 131.91 225.16 135.059 227.399C140.063 230.964 144.858 234.805 149.81 238.422C151.594 239.713 158.296 234.495 159.958 235.752C156.196 232.91 132.085 204.336 140.116 200.788L129.967 203.458C136.074 203.286 143.44 212.035 147.727 215.515C152.959 219.769 159.118 226.451 166.24 224.987C168.007 224.626 171.839 224.298 173.169 223.144C176.091 220.613 172.766 218.529 170.632 215.962C167.15 211.76 147.85 189.559 153.012 186.407L142.863 189.077C152.872 189.869 159.031 201.409 165.837 207.506C169.109 210.434 174.744 216.393 179.503 216.651C181.253 216.755 183.597 215.635 185.26 215.187C186.572 214.843 190.019 214.55 190.754 213C192.486 209.366 184.455 202.08 182.302 200.013C178.47 196.328 161.235 184.409 166.695 177.95L156.546 180.62C165.19 180.017 176.388 191.143 182.267 196.448C189.196 202.7 197.56 209.59 201.06 218.442C203.177 223.782 201.795 227.709 201.287 233.1C200.797 238.198 202.25 240.626 205.889 244.037C214.813 252.373 224.646 259.951 234.13 267.65C252.363 282.462 270.962 296.844 289.527 311.26C298.399 318.149 337.191 341.676 312.012 352.475L321.46 349.961C307.585 353.302 297.734 340.298 288.705 332.152C278.924 323.316 268.635 315.083 259.012 306.041C237.735 286.079 215.373 267.15 195.758 245.535C194.656 244.329 186.624 249.307 185.609 248.205C209.126 274.126 236.02 297.98 262.424 321.06C268.338 326.227 274.497 331.084 280.271 336.389C285.66 341.315 290.91 347.429 297.506 350.805C305.188 354.732 316.596 353.009 324.19 348.91C344.242 338.094 312.869 318.838 304.96 312.689C288.162 299.634 271.312 286.647 254.707 273.368C246.851 267.099 239.047 260.76 231.313 254.319C225.119 249.169 212.013 241.918 211.138 233.289C210.753 229.517 212.818 225.78 212.626 221.956C212.416 217.564 210.456 213.568 208.006 209.986C203.037 202.735 195.706 196.517 189.039 190.833C183.58 186.166 174.149 177.657 166.467 177.985C164.437 178.071 158.033 179.225 156.599 180.603C147.325 189.387 188.304 208.832 179.45 216.668L189.599 213.999C181.533 213.258 172.626 201.805 167.587 196.207C162.548 190.609 157.718 185.546 149.827 187.199C148.217 187.544 144.648 187.974 143.248 188.956C139.241 191.781 143.055 194.846 145.435 198.498C148.077 202.545 166.047 222.645 163.65 225.625L173.799 222.955C168.952 222.921 163.318 217.271 159.713 214.395C155.374 210.95 151.297 207.144 146.782 203.94C141.586 200.255 138.349 200.737 132.417 202.786C126.485 204.836 129.25 209.142 131.42 213.947C135.514 223.076 141.673 232.325 149.775 238.439L159.923 235.769C154.971 232.152 150.177 228.312 145.173 224.746C142.041 222.507 134.744 216.341 130.702 216.979C129.442 217.168 120.816 218.735 120.554 219.648C118.524 227.02 132.015 239.679 136.704 244.295C143.983 251.443 151.682 258.194 162.495 258.694C174.813 259.262 186.414 252.786 195.653 245.638C193.151 247.585 188.059 246.344 185.504 248.308L185.574 248.273Z" fill="var(--fill-0, #C94B44)"/>
</g>
</g>
<defs>
<filter id="filter0_g_0_53" x="0" y="-0.627621" width="335.839" height="359.309" filterUnits="userSpaceOnUse" color-interpolation-filters="sRGB">
<feFlood flood-opacity="0" result="BackgroundImageFix"/>
<feBlend mode="normal" in="SourceGraphic" in2="BackgroundImageFix" result="shape"/>
<feTurbulence type="fractalNoise" baseFrequency="0.033333335071802139 0.033333335071802139" numOctaves="3" seed="176" />
<feDisplacementMap in="shape" scale="10" xChannelSelector="R" yChannelSelector="G" result="displacedImage" width="100%" height="100%" />
<feMerge result="effect1_texture_0_53">
<feMergeNode in="displacedImage"/>
</feMerge>
</filter>
<clipPath id="clip0_0_53">
<rect width="325.839" height="349.309" fill="white" transform="translate(5 4.37238)"/>
</clipPath>
</defs>
</svg>
