<svg preserveAspectRatio="none" width="100%" height="100%" overflow="visible" style="display: block;" viewBox="0 0 326.137 459.856" fill="none" xmlns="http://www.w3.org/2000/svg">
<g id="Vector" filter="url(#filter0_g_0_36)">
<path d="M208.173 120.36C205.119 95.3852 195.016 42.0501 213.52 22.1218C221.058 14.0115 241.534 13.7926 250.013 20.0106C277.369 40.0804 256.971 90.2229 253.402 118.583C252.293 127.389 251.971 136.516 251.933 145.412C245.077 155.595 238.66 154.603 235.542 142.541C226.986 109.392 255.167 61.502 241.882 34.5705C230.916 12.3122 224.499 39.0763 222.695 50.5852C220.363 65.4156 221.071 80.3618 222.347 95.2564C223.3 106.469 227.798 123.308 227.076 133.684C226.921 135.86 225.749 138.061 224.318 139.696L214.628 147.343C246.74 147.858 267.718 178.072 280.939 203.935C309.21 259.227 311.929 317.621 319.274 377.895C321.026 392.262 322.044 417.301 320.021 432.17C318.758 441.426 314.48 461.239 302.226 452.819C286.75 442.186 259.729 402.806 244.884 386.636C209.68 348.312 142.326 299.019 128.732 249.276C121.683 223.451 126.709 198.026 148.666 181.522C143.048 168.855 134.968 156.934 123.616 148.901C112.766 141.228 96.5688 132.397 84.6236 126.114C65.7846 116.202 46.2111 107.345 25.3877 102.324C25.1171 94.5613 39.2528 91.7162 45.3091 92.0638C75.217 93.7631 104.558 113.357 128.951 128.135C129.943 128.741 131.232 130.684 132.224 128.728C126.464 124.235 127.121 115.069 124.582 110.627C122.83 107.564 107.702 93.6473 103.927 90.107C73.6836 61.7852 39.111 36.2956 5.35028 12.325C2.33501 6.66069 19.6793 5.30897 23.21 5C71.4028 27.2455 121.322 46.5558 159.232 85.1378L161.784 85.022C178.033 69.9471 182.246 79.8211 191.743 93.6859C197.632 102.285 201.691 112.185 208.173 120.347V120.36ZM166.99 165.379L184.965 155.749L146.398 107.499L145.741 117.708L170.314 153.792L166.99 165.379ZM311.169 435.556V411.753C311.169 411.508 309.571 407.234 309.223 407.234C299.288 412.538 296.092 414.044 286.776 406.552C284.534 404.749 282.627 402.715 285.397 400.154C288.168 397.592 317.161 389.739 306.517 381.654C303.721 379.53 298.876 378.565 295.847 375.591C287.034 366.914 296.041 359.538 294.34 357.169C287.613 354.555 274.728 349.47 273.104 341.656C271.377 333.34 284.083 326.749 284.134 321.676C284.173 317.415 275.823 316.244 273.735 312.781C269.006 304.941 276.983 301.092 281.518 295.968C265.836 286.339 235.001 296.225 229.95 273.568C218.082 276.645 207.283 273.452 205.583 260.604L270.643 250.267L284.108 256.729L275.076 232.308L199.152 245.156C194.913 240.934 211.884 236.157 214.216 235.128C216.381 234.162 217.772 231.935 220.298 230.905C233.403 225.588 254.613 224.906 268.671 220.696L262.035 206.767L190.738 207.9C179.386 205.119 193.805 199.262 198.908 197.923C215.337 193.623 235.001 194.009 251.946 192.387C248.003 179.99 229.499 190.276 219.113 189.954C215.144 189.826 200.093 184.367 204.371 179.604C216.162 177.544 228.236 180.634 240.348 179.527C243.686 176.489 221.638 163.242 218.455 162.173C201.021 156.38 207.812 166.434 200.364 169.91C198.341 170.85 196.266 169.55 194.295 170.142C170.946 177.119 150.251 184.509 144.375 211.608C131.399 271.418 211.806 323.865 247.461 362.189C267.086 383.289 283.554 408.612 302.78 429.119C303.785 430.2 309.919 437.023 311.169 435.53V435.556ZM293.141 291.462L286.041 265.741C277.266 271.985 267.512 276.838 257.113 279.902L293.141 291.462ZM299.571 321.058C299.481 318.201 299.043 306.035 295.1 306.91L289.289 313.939L299.571 321.058ZM304.726 354.491L301.517 330.057L289.392 345.969C289.894 348.93 301.582 353.229 304.726 354.491Z" fill="#C94B44"/>
</g>
<defs>
<filter id="filter0_g_0_36" x="6.10609e-09" y="0" width="326.137" height="459.856" filterUnits="userSpaceOnUse" color-interpolation-filters="sRGB">
<feFlood flood-opacity="0" result="BackgroundImageFix"/>
<feBlend mode="normal" in="SourceGraphic" in2="BackgroundImageFix" result="shape"/>
<feTurbulence type="fractalNoise" baseFrequency="0.033333335071802139 0.033333335071802139" numOctaves="3" seed="1767" />
<feDisplacementMap in="shape" scale="10" xChannelSelector="R" yChannelSelector="G" result="displacedImage" width="100%" height="100%" />
<feMerge result="effect1_texture_0_36">
<feMergeNode in="displacedImage"/>
</feMerge>
</filter>
</defs>
</svg>
